User Type,Username,Date,Text
[T],rpessoa,2013-03-03T03:07Z,"http://www.imdb.com/title/tt2106670

SUBS: English




Quote:
Newly-hired gofer Young-Jak Joo becomes a key pawn in a powerful South Korean corporate-crime family obsessed with sex, money, and intrigue. The family bribes a government official to take the heat off its young heir. The Yoons are so rich, they have no qualms letting the young bag-man cull the cash he's to deliver, from a storeroom jammed with 6 foot high stacks of money. Mr. Joo seems too obsequious and obedient to worry about, but when the wife of the company CEO sees on her spy cameras, that her husband is having an affair with their maid, the infuriated matriarch orders Mr. Joo to have sex with her, then entrusts the befuddled Mr. Joo with monitoring the video screens. From IMDb

General 
Unique ID : 208188722789479193026905386151644519010 (0x9C9FB0851071DF10A932E7AC0F1C5A62) 
Complete name : The.Taste.of.Money.2012.720p.BluRay.x264-WiKi.mkv 
Format : Matroska 
Format version : Version 1 
File size : 4.37 GiB 
Duration : 1h 54mn 
Overall bit rate : 5 446 Kbps 
Encoded date : UTC 2012-12-04 16:27:25 
Writing application : mkvmerge v2.2.0 ('Turn It On Again') built on Mar 4 2008 13:20:25 
Writing library : libebml v0.7.7 + libmatroska v0.8.1 

Video 
ID : 1 
Format : AVC 
Format/Info : Advanced Video Codec 
Format profile : High@L4.1 
Format settings, CABAC : Yes 
Format settings, ReFrames : 8 frames 
Codec ID : V_MPEG4/ISO/AVC 
Duration : 1h 54mn 
Bit rate : 4 810 Kbps 
Width : 1 280 pixels 
Height : 536 pixels 
Display aspect ratio : 2.40:1 
Frame rate mode : Constant 
Frame rate : 24.000 fps 
Color space : YUV 
Chroma subsampling : 4:2:0 
Bit depth : 8 bits 
Scan type : Progressive 
Bits/(Pixel*Frame) : 0.292 
Stream size : 3.77 GiB (86%) 
Writing library : x264 core 125 r2208 d9d2288 
Encoding settings : cabac=1 / ref=8 / deblock=1:-3:-3 / analyse=0x3:0x113 / me=umh / subme=10 / psy=1 / psy_rd=1.10:0.00 / mixed_ref=1 / me_range=32 / chroma_me=1 / trellis=2 / 8x8dct=1 / cqm=0 / deadzone=21,11 / fast_pskip=0 / chroma_qp_offset=-4 / threads=6 / lookahead_threads=1 / sliced_threads=0 / nr=0 / decimate=0 / interlaced=0 / bluray_compat=0 / constrained_intra=0 / bframes=8 / b_pyramid=2 / b_adapt=2 / b_bias=0 / direct=3 / weightb=1 / open_gop=0 / weightp=2 / keyint=250 / keyint_min=23 / scenecut=40 / intra_refresh=0 / rc_lookahead=48 / rc=2pass / mbtree=1 / bitrate=4810 / ratetol=1.0 / qcomp=0.60 / qpmin=0 / qpmax=69 / qpstep=4 / cplxblur=20.0 / qblur=0.5 / ip_ratio=1.40 / aq=1:0.80 
Language : English 
Default : Yes 
Forced : No 

Audio 
ID : 2 
Format : AC-3 
Format/Info : Audio Coding 3 
Mode extension : CM (complete main) 
Format settings, Endianness : Big 
Codec ID : A_AC3 
Duration : 1h 54mn 
Bit rate mode : Constant 
Bit rate : 640 Kbps 
Channel(s) : 6 channels 
Channel positions : Front: L C R, Side: L R, LFE 
Sampling rate : 48.0 KHz 
Bit depth : 16 bits 
Compression mode : Lossy 
Stream size : 526 MiB (12%) 
Title : 韩语 
Language : Korean 
Default : Yes 
Forced : No "
